<?xml version="1.0" encoding="UTF-8" standalone="no"?>
<!-- Created with Inkscape (http://www.inkscape.org/) -->

<svg
   version="1.1"
   id="svg1099"
   width="399.58923"
   height="399.60556"
   viewBox="0 0 399.58923 399.60556"
   sodipodi:docname="Sekai logo.png"
   xmlns:inkscape="http://www.inkscape.org/namespaces/inkscape"
   xmlns:sodipodi="http://sodipodi.sourceforge.net/DTD/sodipodi-0.dtd"
   xmlns="http://www.w3.org/2000/svg"
   xmlns:svg="http://www.w3.org/2000/svg">
  <defs
     id="defs1103" />
  <sodipodi:namedview
     id="namedview1101"
     pagecolor="#505050"
     bordercolor="#eeeeee"
     borderopacity="1"
     inkscape:showpageshadow="0"
     inkscape:pageopacity="0"
     inkscape:pagecheckerboard="0"
     inkscape:deskcolor="#505050"
     showgrid="false" />
  <g
     inkscape:groupmode="layer"
     inkscape:label="Image"
     id="g1105"
     transform="translate(-49.910774,-50.5)">
    <path
       style="fill:#000000"
       d="m 248.65207,449.24606 -0.53121,-0.85952 -1.22032,-6.62293 -1.22032,-6.62294 -7.59011,-0.64796 -7.59011,-0.64796 -9.49387,-1.46335 -9.49387,-1.46335 -8.00613,-2.04036 -8.00613,-2.04036 -9.5,-3.52995 -9.5,-3.52995 -10,-5.10137 -10,-5.10137 -10,-6.72269 -10,-6.72269 -8.7243,-7.59036 -8.7243,-7.59035 -7.56376,-8.7243 -7.56377,-8.7243 -5.903875,-8.58503 -5.903875,-8.58502 -5.505978,-10.41498 -5.505977,-10.41497 -3.46108,-9 -3.461081,-9 -2.563999,-9.5 -2.563999,-9.5 -1.449379,-9.5 -1.449379,-9.5 -0.650862,-7.62107 -0.650862,-7.62107 -7.471374,-1.27802 -7.471374,-1.27802 0.303804,-1.57753 0.303805,-1.57753 7.172201,-1.45174 7.172201,-1.45173 0.649044,-7.57165 0.649044,-7.57164 1.521645,-10 1.521646,-10 3.313952,-11.53826 3.313952,-11.53825 4.749734,-10.84549 4.749735,-10.84549 6.14161,-10.22587 6.141609,-10.22588 6.935972,-8.89038 6.93597,-8.89038 8.00665,-8.00665 8.00665,-8.00665 8.53911,-6.66168 8.5391,-6.661669 8.4609,-5.259064 8.46089,-5.259065 10,-4.72388 10,-4.723881 10.5,-3.498009 10.5,-3.498008 10,-2.059657 10,-2.059657 11.45463,-1.079029 11.45463,-1.07903 0.13423,-0.212035 0.13423,-0.212036 1.41114,-7 1.41114,-7 h 1.5 1.5 l 1.41114,7 1.41114,7 0.13423,0.212036 0.13423,0.212035 11.45463,1.07903 11.45463,1.079029 10,2.065469 10,2.065469 10.11633,3.308006 10.11632,3.308006 10.38368,4.908071 10.38367,4.908071 8.22032,5.109858 8.22033,5.109857 8.1642,6.214883 8.1642,6.21487 9.42096,9.42096 9.42096,9.42096 7.20404,9.68169 7.20405,9.6817 4.90454,8.36775 4.90454,8.36774 4.86453,10.90165 4.86453,10.90166 3.36932,11.7306 3.36931,11.7306 1.52165,10 1.52165,10 0.64904,7.57164 0.64904,7.57165 7.1814,1.4536 7.18139,1.45359 v 1.47476 1.47476 l -7.18198,1.43458 -7.18197,1.43459 -0.64565,7.56541 -0.64565,7.56542 -1.44938,9.5 -1.44938,9.5 -2.564,9.5 -2.56399,9.5 -3.46108,9 -3.46109,9 -5.50597,10.41497 -5.50598,10.41498 -5.90387,8.58502 -5.90388,8.58503 -7.56377,8.7243 -7.56376,8.7243 -8.7243,7.56376 -8.7243,7.56377 -8.58503,5.90388 -8.58502,5.90387 -10.41498,5.50598 -10.41497,5.50597 -9,3.46109 -9,3.46108 -9.5,2.56399 -9.5,2.564 -9.5,1.44938 -9.5,1.44938 -7.56542,0.64565 -7.56541,0.64565 -1.43459,7.10882 -1.43458,7.10882 -1.15836,0.37594 -1.15836,0.37594 z m -3.982,-18.99606 -0.44797,-0.75 -1.16406,-5.66385 -1.16407,-5.66385 -5.87984,-0.33615 -5.87984,-0.33615 -0.65914,5.69664 -0.65914,5.69664 0.65101,1.05336 0.65101,1.05336 h 7.5 7.5 z m 25.97452,-0.76619 0.58181,-1.51619 -0.65196,-5.23381 -0.65197,-5.23381 -5.90822,0.33615 -5.90822,0.33615 -1.16407,5.66385 -1.16406,5.66385 -0.44797,0.75 -0.44796,0.75 h 7.5904 7.5904 z m -44.14804,-3.23381 0.58718,-3.75 0.39671,-2.56788 0.39671,-2.56789 -9.05209,-1.73526 -9.0521,-1.73527 -0.4497,0.44971 -0.44971,0.44971 -1.39994,5.30694 -1.39995,5.30693 0.53375,0.54651 0.53374,0.5465 7.67943,1.64124 7.67942,1.64123 1.70469,0.10877 L 225.90937,430 Z M 284,428.36096 l 8.5,-1.64059 0.72013,-0.63031 0.72012,-0.63031 -1.4069,-5.33332 -1.4069,-5.33331 -0.44971,-0.44971 -0.4497,-0.44971 -8.97609,1.7207 -8.97608,1.72069 0.31045,1.58246 0.31046,1.58245 0.61338,4.75 0.61339,4.75 0.68872,7.8e-4 0.68873,7.7e-4 z M 248,341.7625 V 254.52501 L 233,269.5 l -15,14.97499 -0.008,1.51251 -0.008,1.5125 14.75833,70.74963 14.75833,70.74963 0.25,3.7e-4 0.25,3.7e-4 v -87.2375 z m -41.628,73.89145 0.62178,-2.47735 -9.04275,-3.03278 -9.04275,-3.03278 -0.83529,2.19448 -0.83529,2.19448 -1.5587,3.72816 -1.5587,3.72816 1.1406,0.70493 1.1406,0.70493 8.54925,2.66729 8.54925,2.66729 1.12511,-3.78473 1.12512,-3.78473 z m 101.878,6.34197 6.75,-2.15898 v -1.28512 -1.28511 l -2.09116,-5.03188 -2.09115,-5.03188 -8.97326,3.00947 -8.97326,3.00948 0.63458,1.63905 0.63458,1.63905 1.07768,4.64644 1.07768,4.64644 2.60215,-0.81899 L 301.5,424.1549 Z M 184.64568,411.9275 186.85635,406.5 178.8204,402.75 170.78446,399 h -0.7333 -0.7333 l -2.65893,4.88533 L 164,408.77066 v 0.65064 0.65065 l 8.21869,3.97446 8.21868,3.97447 0.99882,-0.33294 0.99882,-0.33294 z M 329.25,413.35631 336,409.97486 v -0.52727 -0.52727 l -1.96132,-3.71016 -1.96132,-3.71016 -0.95158,-1.41808 -0.95158,-1.41809 -8.52165,3.79711 -8.52165,3.79711 1.99817,5.06941 1.99818,5.06942 0.52053,0.84224 0.52053,0.84223 2.16585,-0.67179 2.16584,-0.67179 z M 240.81642,413.25 240.5,410.5 l -5.5,-0.8156 -5.5,-0.8156 -10.5,-1.98967 -10.5,-1.98968 -9,-2.96115 -9,-2.96116 -12,-6.00986 -12,-6.00987 -9.47687,-6.7237 L 147.54627,373.5 137.02313,362.97687 126.5,352.45373 l -6.73001,-9.47686 -6.73,-9.47687 -5.97966,-12 -5.97965,-12 -2.999717,-9.02625 -2.999714,-9.02625 -1.995408,-10.97375 -1.995408,-10.97375 -0.795217,-5 -0.795216,-5 -2.831235,-0.32426 -2.831234,-0.32426 0.661244,5.82426 0.661245,5.82426 1.439703,8.68631 1.439702,8.68631 2.964925,9.98031 2.964924,9.98032 3.475357,7.90438 3.475359,7.90439 4.58486,8.15289 4.58486,8.15289 6.1087,8.2761 6.10871,8.2761 8.59644,8.8717 8.59644,8.87169 8.98427,6.98347 8.98427,6.98347 9.01573,5.29435 9.01573,5.29435 9.5,4.04015 9.5,4.04015 8.84149,2.55443 8.84148,2.55443 9.15852,1.48754 9.15851,1.48753 3,0.36854 3,0.36854 2.31642,0.14983 2.31642,0.14983 z m 38.41935,0.1417 8.73577,-1.44829 8.76423,-2.52935 8.76423,-2.52936 8.5,-3.60822 8.5,-3.60823 8.91588,-4.99133 8.91587,-4.99133 9.60086,-7.23223 9.60086,-7.23223 9.98327,-10.41545 9.98326,-10.41545 5.64242,-7.94511 5.64242,-7.94512 4.44008,-8.06888 4.44009,-8.06889 3.59492,-8.43111 3.59492,-8.43112 2.58515,-9 2.58515,-9 1.40741,-8.5 1.40742,-8.5 0.66124,-5.82426 0.66125,-5.82426 -2.83124,0.32426 L 410.5,259.5 l -0.79522,5 -0.79521,5 -1.90224,10.5 -1.90223,10.5 -3.08635,9.5 -3.08634,9.5 -5.9862,12 -5.9862,12 -6.73,9.47687 -6.73001,9.47686 -10.52313,10.52314 -10.52314,10.52313 -9.47686,6.73001 -9.47687,6.73 -12,5.97966 -12,5.97965 -9,2.98507 -9,2.98506 -10.5,1.98968 -10.5,1.98967 -5.5,0.8156 -5.5,0.8156 -0.32426,2.83123 -0.32426,2.83124 5.82426,-0.66125 5.82426,-0.66124 z m -114.40022,-10.90433 2.98577,-5.51263 -2.16066,-1.13975 -2.16066,-1.13974 -5.74988,-3.80058 -5.74989,-3.80058 -3.8403,5.18475 -3.8403,5.18474 2.10994,1.65968 2.10995,1.65968 5.98024,3.60596 5.98024,3.60596 0.67489,0.003 0.67489,0.003 2.98577,-5.51263 z m 180.64469,1.90153 5.98024,-3.60596 2.10995,-1.65968 2.10994,-1.65968 -3.8403,-5.18474 -3.8403,-5.18475 -5.74989,3.80058 -5.74988,3.80058 -2.16066,1.13974 -2.16066,1.13975 2.98577,5.51263 2.98577,5.51263 0.67489,-0.003 0.67489,-0.003 5.98024,-3.60596 z m -107.55585,-5.47025 -1.75376,-8.08136 -0.52223,-0.52223 -0.52223,-0.52223 -8.31309,-1.3939 -8.31308,-1.39391 -10,-3.10005 -10,-3.10004 -9,-4.31882 -9,-4.31882 -6.49841,-4.22239 -6.49841,-4.22239 -7.16357,-5.85357 -7.16357,-5.85356 -6.66164,-7.25769 -6.66165,-7.25769 -5.97747,-8.89192 -5.97747,-8.89192 -4.34531,-9.10808 -4.3453,-9.10808 -3.1082,-9.77631 -3.1082,-9.77632 -1.37563,-8.59065 -1.37564,-8.59065 -1.18994,-0.73542 -1.18994,-0.73543 -6.99418,-1.24993 -6.99417,-1.24992 -0.607784,0.60778 -0.607785,0.60779 1.24019,9.4793 1.24019,9.47931 2.464211,9.20796 2.464208,9.20796 4.19724,10.5377 4.19724,10.53771 5.41236,9.01956 5.41236,9.01956 6.24821,8 6.24821,8 8.85992,8.55847 8.85993,8.55847 6,4.5398 6,4.53979 9.31964,5.60313 9.31963,5.60313 10.20399,3.98956 10.20398,3.98956 7.97638,2.19015 7.97638,2.19015 7.5,1.26637 7.5,1.26638 4.08908,0.10252 4.08908,0.10252 z m -24.02642,0.19982 -2.19948,-1.78103 0.66599,-2.65349 0.66598,-2.65349 2.49776,-0.6269 2.49775,-0.62689 1.53808,1.27649 1.53808,1.27649 -0.30106,2.97728 -0.30107,2.97729 -2.20127,0.80764 -2.20127,0.80764 z M 181.08594,386.75 l -0.84961,-2.25 0.88721,-1.69431 0.88721,-1.6943 1.05146,-0.64984 1.05146,-0.64984 2.42794,0.60938 2.42793,0.60937 0.6269,2.49776 0.62689,2.49775 -1.23411,1.48702 L 187.75511,389 h -2.90978 -2.90978 z M 153.65499,370.17126 152,368.34252 v -1.59983 -1.59983 l 1.57143,-1.57143 L 155.14286,362 H 156.57143 158 l 2,2 2,2 v 1 1 l -2,2 -2,2 h -1.34501 -1.34501 z m -24.20301,-24.6042 -1.59412,-2.43294 1.0394,-1.94215 1.03941,-1.94214 1.96697,-0.51438 1.96698,-0.51438 2.06469,1.44617 2.06469,1.44617 v 1.87187 1.87186 l -1.57143,1.57143 L 134.85714,348 h -1.90552 -1.90551 z M 112.75,318.9199 111,317.90062 v -2.91513 -2.91512 l 2.03777,-1.09059 2.03778,-1.09058 1.9599,0.62205 1.9599,0.62205 0.62085,2.47364 0.62084,2.47365 -1.77351,1.9597 -1.77351,1.95971 -1.09501,-0.0304 -1.09501,-0.0304 -1.75,-1.01928 z m -11.69981,-32.35943 -1.194705,-1.43953 0.322255,-2.81047 L 100.5,279.5 l 2.81047,-0.32226 2.81047,-0.32226 1.43953,1.19471 1.43953,1.1947 v 1.80613 1.80612 l -1.57143,1.57143 L 105.85714,288 h -1.80612 -1.80613 z M 275.5,405.51724 l 9,-1.47472 7.5,-2.09187 7.5,-2.09187 10.18036,-3.97799 10.18037,-3.978 9.31963,-5.60313 9.31964,-5.60313 6,-4.53979 6,-4.5398 8.85993,-8.55847 8.85992,-8.55847 6.2413,-8 6.2413,-8 5.28822,-8.83804 5.28823,-8.83804 4.32164,-10.66196 4.32165,-10.66196 2.47085,-9.26522 2.47085,-9.26523 1.24019,-9.47931 1.24019,-9.4793 -0.60779,-0.60779 -0.60778,-0.60778 -6.99417,1.24992 -6.99418,1.24993 -1.16134,0.71775 -1.16134,0.71775 -1.41334,8.38464 -1.41334,8.38464 -2.51272,8.20163 -2.51272,8.20163 -3.51584,8.21423 -3.51583,8.21423 -4.90734,8.08414 -4.90734,8.08414 -6.62888,8.2486 -6.62888,8.24859 -6.90865,6.18547 -6.90864,6.18547 -8.04374,5.74984 -8.04374,5.74985 -10.22834,4.98327 -10.22833,4.98326 -10,3.08534 -10,3.08533 -8.31308,1.39391 -8.31309,1.3939 -0.52223,0.52223 -0.52223,0.52223 -1.75376,8.08136 -1.75377,8.08135 3.08908,-0.004 3.08908,-0.004 9,-1.47472 z m 5.75,-5.60318 -2.25,-0.84961 v -2.90978 -2.90978 l 1.48701,-1.23411 1.48702,-1.23411 2.49775,0.62689 2.49776,0.6269 0.60937,2.42793 0.60938,2.42794 -0.64984,1.05146 -0.64984,1.05146 -1.6943,0.88721 -1.69431,0.88721 z M 311.2,387.8 310,386.6 v -1.72857 -1.72857 l 1.57143,-1.57143 L 313.14286,380 h 1.90552 1.90551 l 1.59413,2.43294 1.59412,2.43294 -1.10625,2.06706 L 317.92963,389 H 315.16482 312.4 Z m 29.63087,-17.05 -1.5514,-1.25 -0.5896,-1.70113 -0.5896,-1.70114 1.78115,-2.19962 1.78114,-2.19962 2.65349,0.66599 2.65349,0.66598 0.66598,2.65349 0.66599,2.65349 -2.26154,1.83128 L 343.77843,372 h -0.69808 -0.69809 z M 363.57143,346.42857 362,344.85714 V 343.42857 342 l 1.92579,-1.92579 1.92578,-1.92578 2.10588,0.5507 2.10588,0.5507 1.03941,1.94214 1.0394,1.94215 -1.59412,2.43294 L 368.95389,348 h -1.90551 -1.90552 z m 18.3886,-28.25985 -2.26154,-1.83128 0.66599,-2.65349 0.66598,-2.65349 2.49776,-0.6269 2.49775,-0.62689 1.48702,1.23411 1.48701,1.23411 v 2.84237 2.84237 l -1.93426,1.03519 L 385.13148,320 h -0.45495 -0.45496 z m 10.55818,-31.79337 -1.62464,-1.62464 0.30321,-2.02323 0.30322,-2.02322 1.59522,-0.99939 1.59523,-0.99938 2.65477,0.66631 2.65478,0.6663 v 2.78095 2.78095 l -1.2,1.2 -1.2,1.2 h -1.72857 -1.72857 z M 146.38607,390.758 l 3.66961,-5.242 -2.75235,-2.00495 -2.75235,-2.00495 -4.41672,-3.82265 -4.41673,-3.82265 -4.35876,4.27781 L 127,382.41642 v 0.72267 0.72268 l 7.25,6.02031 7.25,6.02031 0.60823,0.0488 0.60823,0.0488 3.66961,-5.242 z M 365.58374,389.86548 373,383.73096 v -0.65727 -0.65727 l -4.35877,-4.27781 -4.35876,-4.27781 -4.41673,3.82265 -4.41672,3.82265 -2.75235,2.00495 -2.75235,2.00495 3.66961,5.242 3.66961,5.242 h 0.44197 0.44196 z M 235,385.49109 v -0.50891 l -7.5637,-36.22146 -7.56371,-36.22146 -0.21043,-0.21043 -0.21042,-0.21043 -25.81902,10.9408 L 167.8137,334 H 166.90685 166 v -0.91539 -0.9154 l 10.12045,-25.63082 10.12045,-25.63082 -0.64291,-0.64291 -0.64291,-0.64291 -35.12852,-7.32656 -35.12853,-7.32656 -0.49841,0.49842 -0.49842,0.49842 1.12847,6.83319 1.12848,6.8332 2.49334,8.60399 2.49334,8.60399 3.89659,9.03823 3.8966,9.03823 6.79701,10.29185 6.79701,10.29185 11.08398,11.08398 11.08398,11.08398 10.02983,6.62258 10.02984,6.62258 7.67112,3.49584 7.67112,3.49584 8.29904,2.5731 8.29905,2.57309 6.5,1.39501 6.5,1.395 2.75,0.0795 L 235,386 Z m 50.23994,-3.10812 9.24236,-2.47342 8.39989,-3.4246 8.39989,-3.4246 6.72631,-3.99602 6.72631,-3.99603 7.88265,-5.878 7.88265,-5.878 8.535,-8.90615 8.53501,-8.90615 6.82392,-10.25871 6.82392,-10.2587 4.34836,-10.25952 4.34836,-10.25953 2.47091,-9.23298 2.47091,-9.23299 0.68703,-5.49878 L 386.23045,265 h -0.54504 -0.54504 l -36.31436,7.57751 -36.31436,7.57751 -0.22009,0.22009 -0.22008,0.22008 L 323.2,306.8 l 11.12852,26.20481 -0.65598,0.65598 -0.65598,0.65599 -26.05766,-10.27568 -26.05765,-10.27569 -0.63924,0.63924 -0.63923,0.63924 -7.29926,34.72806 -7.29925,34.72805 -0.0121,0.86522 -0.0121,0.86523 5.49879,-0.68703 5.49878,-0.68703 9.24237,-2.47342 z m -155.7143,-5.84896 3.65955,-4.46599 -5.8426,-6.53345 -5.84259,-6.53346 -0.58589,-5.5e-4 -0.58589,-5.6e-4 -4.67105,3.63918 -4.67104,3.63918 1.19817,1.61082 1.19818,1.61082 5.52745,5.75 5.52746,5.75 h 0.71436 0.71435 z m 252.92504,-2.62887 6.69293,-7.09486 -0.3218,-0.29667 -0.32181,-0.29666 -4.34461,-3.60847 -4.34462,-3.60848 -0.65538,5.6e-4 -0.65539,5.5e-4 -5.84259,6.53346 -5.8426,6.53345 3.65955,4.46599 L 374.1339,381 h 0.81192 0.81192 z M 119,356.26751 v -0.41942 l -4.33557,-5.67405 -4.33556,-5.67404 -0.94696,-1.73709 -0.94696,-1.73708 -5.29439,3.56545 -5.294394,3.56545 0.555688,1.4481 0.555688,1.4481 5.159378,6.91657 5.15938,6.91657 4.86185,-4.09957 L 119,356.68693 Z m 280.18287,-2.80464 3.68287,-5.12167 -5.23147,-3.1706 L 392.4028,342 h -0.57853 -0.57853 l -5.25754,7.20581 -5.25753,7.20582 4.88466,4.24724 4.88467,4.24724 2.5,-3.16079 2.5,-3.16078 z m -293.9293,-12.88643 1.75358,-1.30215 -4.58313,-8.08935 -4.583127,-8.08936 -5.544877,2.45221 L 86.751139,328 h -0.392415 -0.392416 l 2.653284,5.236 2.653284,5.23601 2.402635,3.80602 2.402636,3.80602 3.710926,-2.10273 3.710927,-2.10273 z m 301.09745,1.65956 2.3761,-3.76399 2.65329,-5.23601 2.65328,-5.236 h -0.39241 -0.39242 l -5.54488,-2.45221 -5.54487,-2.45221 -4.61372,8.14334 -4.61371,8.14334 1.28416,0.7521 1.28416,0.7521 3.5,2.50774 3.5,2.50773 0.73746,0.049 0.73745,0.049 2.37611,-3.764 z M 305.49062,307.97791 285.5,287.95583 l -1.73979,7.27208 -1.73979,7.27209 -0.26021,3.91805 -0.26021,3.91805 21.5,8.74219 21.5,8.74219 0.49062,0.0898 0.49063,0.0898 -19.99063,-20.02209 z m -214.044388,15.41808 5.687917,-2.60402 -0.487281,-1.14598 -0.487281,-1.14599 -2.431155,-6 -2.431154,-6 -0.598579,-1.70133 -0.598579,-1.70134 -6.05006,2.04314 L 78,307.18361 v 0.71858 0.71858 l 2.571922,6.43962 2.571922,6.43961 0.903327,2.25 0.903327,2.25 h 0.403908 0.403908 z m 327.229048,-5.97 3.23122,-7.92599 0.0468,-1.1582 0.0467,-1.15819 -6.05006,-2.04314 -6.05006,-2.04314 -0.58569,1.70134 -0.5857,1.70133 -2.84519,6.93572 -2.8452,6.93572 0.23095,0.19234 0.23095,0.19235 5,2.57263 5,2.57262 0.97203,-0.2747 0.97204,-0.2747 z M 204.76664,283.78617 197.5,282.07235 193.55383,281.78617 189.60765,281.5 181.30383,302.4343 173,323.3686 v 0.55608 0.55609 L 192.51664,304.99038 212.03329,285.5 Z M 82.571861,303.36709 87.5,301.73417 88.276485,301.0406 89.052969,300.34703 86.848925,291.92352 84.64488,283.5 84.419658,283.18055 84.194435,282.8611 78.097218,284.06066 72,285.26021 l 0.0056,0.6199 0.0056,0.61989 1.053517,4 1.053517,4 1.468841,5.25 1.468841,5.25 h 0.293926 0.293926 l 4.928139,-1.63291 z M 425.89491,295.05961 428,286.61922 v -0.67951 -0.6795 l -6.09722,-1.19955 -6.09722,-1.19956 -0.22522,0.31945 -0.22522,0.31945 -2.19701,8.39722 -2.197,8.39722 0.57158,0.57158 0.57158,0.57159 5.19787,1.62475 5.19786,1.62476 0.64491,-0.59356 0.64491,-0.59356 z M 79.854694,281.40327 84.209388,280.7109 83.637861,277.10545 83.066335,273.5 82.395486,267.75 81.724637,262 76.612319,262.0153 71.5,262.0306 l -1.339383,0.84894 -1.339384,0.84895 1.222303,9.71079 1.222303,9.71078 2.117081,-0.52723 2.11708,-0.52723 4.354694,-0.69236 z m 350.111216,-8.03901 1.21286,-9.63574 -1.33939,-0.84895 -1.33938,-0.84894 -5.11232,-0.0153 -5.11232,-0.0153 -0.67085,5.75 -0.67084,5.75 -0.56942,3.59227 -0.56942,3.59228 5.35258,1.02635 5.35259,1.02635 1.12653,0.13138 1.12652,0.13137 1.21286,-9.63574 z m -72.26308,-5.9138 69.79717,-14.54954 1,-0.37151 1,-0.37152 -87.4875,-0.0789 L 254.52501,252 269.5,267 l 14.97499,15 h 1.71533 1.71533 z M 80.5,259.06524 l 2,-0.7942 -6,-1.24657 -6,-1.24657 -0.75,-0.44797 L 69,254.88197 V 257.44098 260 l 4.75,-0.0703 4.75,-0.0703 2,-0.79419 z M 431,257.44098 v -2.55901 l -0.75,0.44796 -0.75,0.44797 -6,1.24657 -6,1.24657 2,0.7942 2,0.79419 4.75,0.0703 4.75,0.0703 v -2.55902 z M 230.5,233 l -14.97499,-15 -2.01251,0.0532 -2.0125,0.0532 -70.5,14.86935 -70.5,14.86936 87.4875,0.0774 87.48749,0.0775 z m -149,8.96534 1,-0.10591 -2,-0.85943 -2,-0.85943 -4.75,-0.0703 L 69,240 v 2.4098 2.4098 l 5.75,-1.37418 5.75,-1.37418 z M 282,213.9301 v -1.59491 L 267.60089,143.41759 253.20178,74.5 l -0.48489,-2 -0.48489,-2 -0.116,87.4875 L 252,245.47499 267,230.5 282,215.52501 Z M 431,242.5 V 240 l -4.75,0.0703 -4.75,0.0703 -2,0.7932 -2,0.7932 6.5,1.54825 6.5,1.54825 0.25,0.0883 0.25,0.0883 v -2.5 z m -340.704784,-7 0.795217,-5 1.902236,-10.5 1.902236,-10.5 3.086341,-9.5 3.086344,-9.5 5.9862,-12 5.9862,-12 6.73,-9.47687 6.73001,-9.47686 10.52313,-10.52314 10.52314,-10.52313 9.47686,-6.73001 9.47687,-6.73 12,-5.9862 12,-5.9862 9.5,-3.086344 9.5,-3.086341 10.5,-1.902236 10.5,-1.902236 5,-0.795217 5,-0.795216 0.31804,-2.766732 0.31803,-2.766732 -5.81803,0.588093 -5.81804,0.588093 -10.7554,1.959873 -10.7554,1.959873 -9.2446,3.011063 -9.2446,3.011064 -11.20923,5.378975 -11.20922,5.37897 -7.79078,5.20399 -7.79077,5.20399 -6.61534,5.37803 -6.61534,5.37803 -7.89894,8.24671 -7.89895,8.24671 -4.5717,6 -4.5717,6 -3.66269,5.76735 -3.6627,5.76736 -4.5056,8.97118 -4.505593,8.97118 -2.499767,6.64126 -2.499766,6.64127 -2.422708,9.1202 -2.422709,9.1202 -1.032818,7 -1.032819,7 -0.644788,5.32649 -0.644789,5.32649 2.854359,-0.32649 L 89.5,240.5 Z m 325.215874,-0.25 -0.63282,-5.75 -1.97037,-10.7554 -1.97037,-10.7554 -3.01106,-9.2446 -3.01106,-9.2446 -5.37898,-11.20923 -5.37897,-11.20922 -5.20399,-7.79078 -5.20399,-7.79077 -5.37803,-6.61534 -5.37803,-6.61534 -8.36215,-8.028 -8.36215,-8.028 -7.38456,-5.39884 -7.38456,-5.39885 -5,-3.15065 -5,-3.15065 -10.5,-5.00965 -10.5,-5.00965 -9.2446,-3.016281 -9.2446,-3.016281 L 281.2554,87.102595 270.5,85.142722 264.75,84.562625 259,83.982529 v 2.449718 2.449719 l 0.95408,0.589657 0.95409,0.589656 8.79591,1.063886 8.79592,1.063886 11.5,2.943582 11.5,2.943581 11,4.733536 11,4.73354 8.36629,4.97835 8.36629,4.97836 10.3243,8.2623 10.32431,8.26229 6.8094,7.56946 6.80941,7.56947 5.79143,8.09032 5.79144,8.09033 4.38049,8.07792 4.3805,8.07791 3.58557,8.71152 3.58558,8.71152 2.89797,11.28848 2.89797,11.28848 1.06388,8.79592 1.06389,8.79591 0.58966,0.95409 0.58965,0.95408 h 2.51294 2.51294 z m -305.38257,-0.42371 0.84085,-1.32629 0.0153,-2.29216 0.0153,-2.29216 1.53838,-7.44776 1.53838,-7.44777 2.53197,-7.76007 2.53196,-7.76008 3.95576,-8.44412 3.95575,-8.44412 6.67886,-10.05588 6.67887,-10.05588 10.54503,-10.53898 10.54504,-10.53898 9.39192,-6.26212 9.39192,-6.26211 9.10808,-4.34531 9.10808,-4.3453 9.77631,-3.1082 9.77632,-3.1082 8.50722,-1.36227 8.50723,-1.36228 0.55178,-0.55177 0.55177,-0.55177 1.78225,-8.21265 1.78226,-8.212643 -6.95455,0.646358 -6.95456,0.646358 -9.60635,2.081294 -9.60634,2.081295 -8.55667,3.007888 -8.55667,3.00788 -8.21182,3.90598 -8.21182,3.90597 -10.78818,7.16932 -10.78818,7.16933 -12.57046,12.57045 -12.57045,12.57046 -7.16933,10.78818 -7.16932,10.78818 -4.03637,8.45702 -4.03637,8.45702 -3.40581,10.2548 -3.405813,10.2548 -1.548222,7.6119 -1.548222,7.61191 -0.656171,7.06014 -0.65617,7.06014 8.280188,-1.84576 8.28019,-1.84575 0.84085,-1.32629 z M 102.25,220.91406 100,220.06445 v -2.90978 -2.90978 l 1.48701,-1.23411 1.48702,-1.23411 2.49775,0.62689 2.49776,0.6269 0.60937,2.42793 0.60938,2.42794 -0.64984,1.05146 -0.64984,1.05146 -1.6943,0.88721 -1.69431,0.88721 z M 112.2,188.8 111,187.6 v -2.83222 -2.83223 l 2.25,-0.87265 2.25,-0.87265 2,1.26947 2,1.26948 0.30322,2.01075 0.30321,2.01076 -1.62464,1.62464 L 116.85714,190 H 115.12857 113.4 Z M 130,160 l -2,-2 v -0.77749 -0.7775 l 1.5567,-2.2225 L 131.11341,152 h 1.78831 1.7883 l 1.65499,1.82874 L 138,155.65748 V 156.82874 158 l -2,2 -2,2 h -1 -1 z M 153.57143,136.42857 152,134.85714 v -1.90552 -1.90551 l 2.43294,-1.59413 2.43294,-1.59412 1.94215,1.0394 1.94214,1.03941 0.51438,1.96697 0.51438,1.96698 -1.44617,2.06469 L 158.88659,138 h -1.87187 -1.87186 z m 27.88055,-18.86151 -1.59412,-2.43294 1.10625,-2.06706 L 182.07037,111 H 185 h 2.92963 l 1.03519,1.93426 1.03518,1.93426 v 0.99431 0.99431 l -1.57143,1.57143 L 186.85714,120 h -1.90552 -1.90551 z m 32.06623,-10.19171 -1.62464,-1.62464 0.30321,-2.02323 0.30322,-2.02322 1.59522,-0.99939 1.59523,-0.999379 2.65477,0.666309 2.65478,0.6663 v 2.78095 2.78095 l -1.2,1.2 -1.2,1.2 h -1.72857 -1.72857 z m 192.10028,117.78141 -1.53236,-9.65676 -2.6088,-8.99195 -2.6088,-8.99196 -3.87335,-9.27001 -3.87335,-9.27001 -4.76437,-8.00946 -4.76437,-8.00946 -6.19402,-8.25306 -6.19402,-8.25305 -10.45481,-10.06979 -10.45481,-10.06979 -10.39772,-6.93978 -10.39771,-6.93977 -8.5,-4.11949 -8.5,-4.11948 -8.55667,-3.00011 -8.55667,-3.000108 -9.60634,-2.081295 -9.60635,-2.081294 -6.95456,-0.646358 -6.95455,-0.646358 1.78226,8.212643 1.78225,8.21265 0.55177,0.55177 0.55178,0.55177 8.50723,1.36228 8.50722,1.36227 9.77632,3.08364 9.77631,3.08363 11.0437,5.43936 11.04369,5.43936 10.60605,7.96341 10.60605,7.96341 6.98229,7.5776 6.98229,7.5776 5.65691,7.85675 5.6569,7.85676 4.96584,9.75355 4.96584,9.75356 3.39907,10.58028 3.39908,10.58029 1.48356,8.80408 1.48356,8.80408 0.55106,0.55107 0.55107,0.55106 7.81152,1.71831 7.81152,1.7183 0.32542,-2.41669 0.32542,-2.4167 z m -12.72052,-5.03829 -2.19948,-1.78103 0.66599,-2.65349 0.66598,-2.65349 2.49776,-0.6269 2.49775,-0.62689 1.53808,1.27649 1.53808,1.27649 -0.30106,2.97728 -0.30107,2.97729 -2.20127,0.80764 -2.20127,0.80764 z M 381.57143,188.42857 380,186.85714 v -1.90552 -1.90551 l 2.43294,-1.59413 2.43294,-1.59412 2.06706,1.10625 2.06706,1.10626 v 2.76481 2.76482 l -1.2,1.2 -1.2,1.2 h -1.72857 -1.72857 z m -17.6114,-28.25985 -2.26154,-1.83128 0.66599,-2.65349 0.66598,-2.65349 2.65349,-0.66598 2.65349,-0.66599 1.83128,2.26154 L 372,156.22157 V 157.11078 158 l -2,2 -2,2 h -0.88922 -0.88921 z m -24.45966,-24.52782 -1.54574,-2.35909 0.64033,-1.66869 0.64034,-1.66868 1.94941,-1.04329 1.94941,-1.04329 2.43294,1.59412 2.43294,1.59413 v 1.90551 1.90552 l -1.57143,1.57143 L 344.85714,138 h -1.90552 -1.90551 z m -27.98216,-17.26555 -1.62464,-1.62464 0.30321,-2.02323 0.30322,-2.02322 1.59522,-0.99939 1.59523,-0.99938 2.53528,0.63632 2.53529,0.63631 0.50895,1.94625 0.50896,1.94625 -1.44617,2.06469 L 316.88659,120 h -1.87187 -1.87186 z m -31.46802,-10.81488 -1.19471,-1.43953 0.32226,-2.81047 L 279.5,100.5 l 2.81047,-0.32226 2.81047,-0.322255 1.43953,1.194705 1.43953,1.1947 v 1.80613 1.80612 l -1.57143,1.57143 L 284.85714,109 h -1.80612 -1.80613 z M 82.395486,232.25 l 0.670849,-5.75 0.571813,-3.60724 0.571813,-3.60725 -5.11716,-0.67881 -5.11716,-0.67882 -1.35719,-0.5208 -1.35719,-0.5208 -1.220014,9.6926 -1.220014,9.6926 1.339384,0.84895 1.339383,0.84894 5.112319,0.0153 5.112318,0.0153 0.670849,-5.75 z m 347.443894,4.87043 1.33939,-0.84895 -1.22002,-9.6926 -1.22001,-9.6926 -1.35719,0.5208 -1.35719,0.5208 -5.11716,0.67882 -5.11716,0.67881 0.57181,3.60725 0.57182,3.60724 0.67084,5.75 0.67085,5.75 5.11232,-0.0153 5.11232,-0.0153 1.33938,-0.84894 z m -278.38406,-9.6594 35.95532,-7.53833 0.27944,-0.27945 0.27945,-0.27945 -11.00651,-25.86015 -11.00651,-25.86016 0.80735,-0.80735 0.80734,-0.80734 26.22402,10.37135 26.22402,10.37136 0.49041,-2.13575 0.4904,-2.13576 7.04697,-33.86967 7.04697,-33.86967 -0.56984,-0.56984 -0.56984,-0.56985 -9.22716,1.75441 -9.22715,1.7544 -9,2.99425 -9,2.99424 -8.887,4.47572 -8.88699,4.47573 -7.56198,5.21514 -7.56199,5.21514 -8.84019,8.40093 -8.84019,8.40092 -5.92453,7.86245 -5.92452,7.86244 -3.94559,6.75578 -3.94559,6.75578 -3.60249,8.7027 -3.6025,8.70269 -2.41641,9.02937 -2.41642,9.02937 -0.68703,5.49878 -0.68703,5.49879 0.86523,-3.2e-4 0.86522,-3.1e-4 z m 234.53562,5.28897 -0.009,-2.25 -2.4411,-10.76117 -2.44109,-10.76117 -4.01149,-9.99868 -4.01148,-9.99868 -4.07466,-6.97678 -4.07467,-6.97678 -5.92452,-7.86244 -5.92453,-7.86245 -8.84019,-8.40092 -8.84019,-8.40093 -7.56199,-5.21514 -7.56198,-5.21514 -8.88699,-4.47573 -8.887,-4.47572 -9,-2.99424 -9,-2.99425 -9.22715,-1.7544 -9.22716,-1.75441 -0.57466,0.57467 -0.57467,0.57467 7.5963,36.32599 7.59629,36.32599 0.31282,0.31281 0.31282,0.31282 25.80875,-11.05792 25.80874,-11.05792 0.81956,0.81956 0.81956,0.81956 -10.36755,26.2144 L 313.2361,220 l 0.13195,0.0304 0.13195,0.0304 34.5,7.36173 34.5,7.36174 1.75,0.10787 L 386,235 l -0.009,-2.25 z m -67.25457,-35.14859 8.29979,-20.89858 -0.31454,-0.31454 -0.31453,-0.31454 -19.34398,19.36308 -19.34397,19.36307 5.89043,1.19523 5.89043,1.19524 3.5,0.82212 3.5,0.82212 1.96829,-0.16731 1.9683,-0.1673 z m -231.972204,10.70444 2.247527,-8.69416 -0.755847,-0.67293 -0.755846,-0.67293 -4.938749,-1.63653 -4.938748,-1.63653 -0.735043,1.18932 -0.735042,1.18933 -2.116885,8.44028 -2.116885,8.44028 0.402581,0.40258 0.40258,0.40258 4.388095,0.86187 4.388096,0.86186 1.508319,0.10956 1.50832,0.10957 z m 335.273074,7.68709 5.31022,-1.00706 0.37358,-0.37358 0.37358,-0.37358 -2.16579,-8.86936 -2.16578,-8.86936 -0.37492,-0.64383 -0.37493,-0.64382 -5.7566,1.78112 -5.7566,1.78112 0.009,1.36271 0.009,1.3627 1.92418,7.75 1.92418,7.75 h 0.68066 0.68067 l 5.31022,-1.00706 z M 218.23979,193.55377 218.5,189.60755 197.50535,181.30377 176.5107,173 h -0.49573 -0.49574 l 19.49039,19.52231 19.49038,19.5223 1.73979,-7.2723 1.73979,-7.27231 z m -124.672403,-5.7209 3.332871,-8.26595 -0.200129,-0.16316 L 96.5,179.2406 l -5.371557,-2.69874 -5.371556,-2.69875 -0.752796,0.82845 -0.752796,0.82844 -3.181011,8.3613 -3.181011,8.36131 0.395127,0.39512 0.395128,0.39513 5.410236,1.86451 5.410236,1.8645 0.367258,-0.32153 0.367259,-0.32152 z M 422,191.83868 v -0.97772 l -3.1429,-7.68048 -3.14289,-7.68048 -0.73555,-0.82844 -0.73555,-0.82845 -5.37155,2.69875 -5.37156,2.69874 -0.23095,0.19398 -0.23095,0.19398 2.8452,6.93572 2.84519,6.93572 0.5857,1.70133 0.58569,1.70134 6.05006,-2.04314 L 422,192.81639 Z m -319.57247,-23.02981 4.64079,-8.19113 -1.28416,-0.77401 -1.28416,-0.77401 -4.13663,-2.52393 -4.136621,-2.52393 -0.984269,1.23907 -0.98427,1.23907 -4.138327,7.60211 -4.138328,7.60212 5.759223,2.62874 5.759222,2.62874 0.143369,0.0191 0.143369,0.0191 4.640792,-8.19113 z m 305.97926,5.51766 5.4511,-2.67347 -2.56539,-5.06253 -2.56538,-5.06254 -2.40263,-3.80602 -2.40264,-3.80602 -3.71092,2.10273 -3.71093,2.10273 -1.76272,1.30883 -1.76271,1.30884 4.57225,8.13046 4.57224,8.13046 h 0.41832 0.41831 z M 119,143.59577 v -0.2827 l -4.87332,-4.10924 -4.87331,-4.10924 -5.62669,7.81478 -5.62668,7.81478 0.03133,0.88792 0.03133,0.88793 5.1364,3.12133 5.13639,3.12132 5.33228,-7.43209 5.33228,-7.43209 v -0.2827 z m 280.72472,9.80674 2.69403,-2.14814 -3.75117,-5.37718 -3.75118,-5.37719 -2.2082,-2.668 -2.2082,-2.66801 -4.84023,4.22279 -4.84024,4.22279 5.34024,7.56147 5.34023,7.56147 2.76535,-1.59093 2.76535,-1.59093 z m -272.30873,-18.93533 5.77115,-6.53282 -3.66052,-4.46718 L 125.8661,119 h -0.83942 -0.83941 l -6.64566,7.17793 -6.64566,7.17792 4.30203,3.77944 4.30202,3.77944 1.07242,0.0426 1.07242,0.0426 5.77115,-6.53282 z m 256.92684,2.89364 4.67104,-3.63918 -1.19817,-1.61082 -1.19818,-1.61082 -5.52745,-5.75 -5.52746,-5.75 h -0.66084 -0.66085 l -3.68626,4.49861 -3.68627,4.4986 5.74338,6.5014 5.74339,6.50139 h 0.65831 0.65831 z M 142.78011,120.2921 149.5,114.5842 l -0.28951,-0.91062 -0.2895,-0.91061 -2.65533,-3.63149 -2.65532,-3.63148 -0.65382,-0.79865 -0.65382,-0.79865 -4.90135,3.9677 -4.90135,3.9677 -3,2.5094 -3,2.50941 4.45821,4.57154 4.45821,4.57155 h 0.3219 0.3219 z M 368.79179,121.71215 373,117.4243 v -0.63099 -0.63098 l -7.6526,-6.1562 -7.65261,-6.15621 -2.26732,2.82504 -2.26733,2.82504 -1.47894,2.5 -1.47894,2.5 6.64887,5.67123 6.64887,5.67124 0.54179,0.0788 0.54179,0.0788 4.20821,-4.28785 z M 164.77041,97.392365 161.84978,92 h -0.78794 -0.78794 l -8.08685,5.260436 -8.08686,5.260434 3.9618,5.19546 3.96179,5.19546 7.83363,-5.06353 7.83363,-5.06353 z m 187.13397,10.368075 3.99543,-5.23957 -8.12516,-5.28535 -8.12516,-5.285352 -0.8517,0.283903 -0.85171,0.283904 -2.90247,5.082022 -2.90246,5.082023 7.67942,5.0747 7.67943,5.07471 0.20448,0.0843 0.20448,0.0843 3.99542,-5.23956 z M 184.84008,88.562739 182.85696,83.5 l -0.78595,-0.80747 -0.78595,-0.80747 -8.64253,3.99286 -8.64253,3.992861 0.009,0.814609 0.009,0.81461 2.90586,5.066178 2.90586,5.066182 8.49635,-4.003443 8.49635,-4.003438 -1.98311,-5.06274 z M 332.97039,96.75 l 3.01084,-5.25 0.009,-0.81461 0.009,-0.814609 -8.64253,-3.992861 -8.64253,-3.99286 -0.7875,0.80747 -0.7875,0.80747 -1.97258,5 -1.97257,5 8.1526,4.089122 8.15261,4.089118 0.22977,0.16088 0.22977,0.16088 3.01085,-5.25 z M 206.59904,85.148824 206.12752,83.5 204.90547,79.25 203.68342,75 h -1.16656 -1.16656 l -7.42515,2.507456 -7.42515,2.507456 -1.21733,0.448621 -1.21732,0.448621 1.58618,3.793923 1.58617,3.793923 0.83529,2.19448 0.83529,2.19448 9.08114,-3.045656 9.08113,-3.045656 z M 313.21182,87.20403 314.99837,82.5 314.99919,81.456118 315,80.412236 306.69045,77.706118 298.38091,75 h -1.07174 -1.07174 l -1.10069,4.371247 -1.1007,4.371248 -0.58452,1.523251 -0.58453,1.523251 8.81651,2.968597 8.8165,2.968596 0.46264,-0.409065 0.46263,-0.409066 z m -93.69554,-2.849666 8.37547,-1.645637 -0.40401,-2.604363 -0.40401,-2.604364 -0.59656,-3.800027 -0.59657,-3.800027 -1.6953,0.476976 -1.6953,0.476977 -4.5,0.653565 -4.5,0.653566 -3.80081,0.971711 -3.80081,0.971711 0.49129,1.697774 0.49129,1.697774 1.09806,4.25 1.09807,4.25 h 1.03186 1.03186 z m 72.5047,-2.604364 1.09806,-4.25 0.48227,-1.669349 0.48227,-1.669348 -1.93145,-0.61302 -1.93146,-0.613019 -7.86033,-1.372799 -7.86034,-1.372798 -0.23974,0.228245 -0.23975,0.228244 -0.83188,6.08284 -0.83188,6.08284 7.07162,1.452739 7.07163,1.452739 2.21146,0.141343 L 290.92291,86 Z m -49.98536,-0.588821 0.0356,-0.661179 1.39882,-5.855989 1.39882,-5.855989 -7.36714,0.372023 -7.36714,0.372024 -0.67261,0.672607 -0.67261,0.672607 0.67246,5.811359 0.67245,5.811358 5.93286,-0.338821 5.93285,-0.338821 0.0356,-0.661179 z M 270.88169,73.795313 271,70.090626 l -3.25267,-0.610205 -3.25268,-0.610205 -4.57193,0.314892 -4.57192,0.314892 1.38302,6.201839 1.38302,6.20184 5.69158,0.29816 L 269.5,82.5 l 0.63169,-2.5 0.63168,-2.5 z"
       id="path1584" />
  </g>
</svg>
